<?xml version="1.0" standalone="no"?>
<!DOCTYPE svg PUBLIC "-//W3C//DTD SVG 20010904//EN"
 "http://www.w3.org/TR/2001/REC-SVG-20010904/DTD/svg10.dtd">
<svg version="1.0" xmlns="http://www.w3.org/2000/svg"
 width="612.000000pt" height="612.000000pt" viewBox="0 0 612.000000 612.000000"
 preserveAspectRatio="xMidYMid meet">

<g transform="translate(0.000000,612.000000) scale(0.100000,-0.100000)"
fill="#000000" stroke="none">
<path d="M2810 5230 c-666 -82 -1250 -455 -1610 -1030 -163 -259 -277 -598
-311 -919 -15 -142 -7 -440 16 -571 130 -766 641 -1398 1360 -1683 274 -109
548 -154 869 -144 334 10 583 72 881 217 667 324 1116 953 1211 1692 22 174
15 470 -15 638 -163 920 -877 1628 -1801 1786 -112 19 -486 27 -600 14z m570
-145 c802 -133 1454 -721 1659 -1495 55 -210 65 -285 65 -525 0 -186 -3 -240
-23 -349 -50 -284 -152 -543 -306 -778 -87 -132 -135 -191 -253 -312 -168
-170 -336 -294 -542 -396 -271 -136 -536 -204 -840 -217 -557 -23 -1091 180
-1492 566 -336 323 -538 708 -614 1167 -22 133 -25 475 -5 599 75 470 281 871
612 1190 322 310 727 503 1177 561 134 17 430 11 562 -11z"/>
<path d="M2920 4283 c-52 -9 -157 -47 -220 -79 -141 -74 -262 -197 -330 -339
-66 -136 -75 -181 -74 -350 0 -142 2 -155 32 -238 83 -236 257 -407 496 -490
85 -29 100 -31 231 -32 108 0 154 4 200 18 264 81 453 259 538 505 24 72 30
108 34 207 10 239 -57 413 -222 579 -110 112 -234 180 -380 212 -56 12 -248
17 -305 7z"/>
<path d="M2928 2619 c-109 -9 -272 -50 -384 -95 -241 -97 -477 -289 -618 -504
-53 -80 -129 -230 -146 -287 -12 -40 -12 -42 21 -72 60 -56 212 -167 300 -219
182 -109 367 -180 594 -229 120 -25 148 -27 355 -28 236 0 291 6 475 52 285
71 578 226 782 414 l45 42 -12 41 c-20 69 -116 247 -178 332 -126 171 -302
319 -497 416 -155 77 -302 119 -484 138 -112 11 -124 11 -253 -1z"/>
</g>
</svg>
